<?xml version="1.0" encoding="utf-8" standalone="no"?>
<!DOCTYPE svg PUBLIC "-//W3C//DTD SVG 1.1//EN"
  "http://www.w3.org/Graphics/SVG/1.1/DTD/svg11.dtd">
<svg xmlns:xlink="http://www.w3.org/1999/xlink" width="694.549062pt" height="485.71945pt" viewBox="0 0 694.549062 485.71945" xmlns="http://www.w3.org/2000/svg" version="1.1">
 <metadata>
  <rdf:RDF xmlns:dc="http://purl.org/dc/elements/1.1/" xmlns:cc="http://creativecommons.org/ns#" xmlns:rdf="http://www.w3.org/1999/02/22-rdf-syntax-ns#">
   <cc:Work>
    <dc:type rdf:resource="http://purl.org/dc/dcmitype/StillImage"/>
    <dc:date>2026-05-16T04:31:32.432360</dc:date>
    <dc:format>image/svg+xml</dc:format>
    <dc:creator>
     <cc:Agent>
      <dc:title>Matplotlib v3.10.8, https://matplotlib.org/</dc:title>
     </cc:Agent>
    </dc:creator>
   </cc:Work>
  </rdf:RDF>
 </metadata>
 <defs>
  <style type="text/css">*{stroke-linejoin: round; stroke-linecap: butt}</style>
 </defs>
 <g id="figure_1">
  <g id="patch_1">
   <path d="M 0 485.71945 
L 694.549062 485.71945 
L 694.549062 0 
L 0 0 
z
" style="fill: #f6f1e7"/>
  </g>
  <g id="axes_1">
   <g id="patch_2">
    <path d="M 44.749063 390.24 
L 687.349062 390.24 
L 687.349062 7.2 
L 44.749063 7.2 
z
" style="fill: #f6f1e7"/>
   </g>
   <g id="matplotlib.axis_1">
    <g id="xtick_1">
     <g id="line2d_1">
      <path d="M 62.177621 390.24 
L 62.177621 7.2 
" clip-path="url(#p20fa62afc7)" style="fill: none; stroke: #d7ccba; stroke-opacity: 0.8; stroke-width: 0.8; stroke-linecap: square"/>
     </g>
     <g id="line2d_2">
      <defs>
       <path id="mf5efb1f4ff" d="M 0 0 
L 0 3.5 
" style="stroke: #6e665b; stroke-width: 0.8"/>
      </defs>
      <g>
       <use xlink:href="#mf5efb1f4ff" x="62.177621" y="390.24" style="fill: #6e665b; stroke: #6e665b; stroke-width: 0.8"/>
      </g>
     </g>
     <g id="text_1">
      <!-- −1.5 -->
      <g style="fill: #6e665b" transform="translate(50.036215 404.838437) scale(0.1 -0.1)">
       <defs>
        <path id="DejaVuSans-2212" d="M 678 2272 
L 4684 2272 
L 4684 1741 
L 678 1741 
L 678 2272 
z
" transform="scale(0.015625)"/>
        <path id="DejaVuSans-31" d="M 794 531 
L 1825 531 
L 1825 4091 
L 703 3866 
L 703 4441 
L 1819 4666 
L 2450 4666 
L 2450 531 
L 3481 531 
L 3481 0 
L 794 0 
L 794 531 
z
" transform="scale(0.015625)"/>
        <path id="DejaVuSans-2e" d="M 684 794 
L 1344 794 
L 1344 0 
L 684 0 
L 684 794 
z
" transform="scale(0.015625)"/>
        <path id="DejaVuSans-35" d="M 691 4666 
L 3169 4666 
L 3169 4134 
L 1269 4134 
L 1269 2991 
Q 1406 3038 1543 3061 
Q 1681 3084 1819 3084 
Q 2600 3084 3056 2656 
Q 3513 2228 3513 1497 
Q 3513 744 3044 326 
Q 2575 -91 1722 -91 
Q 1428 -91 1123 -41 
Q 819 9 494 109 
L 494 744 
Q 775 591 1075 516 
Q 1375 441 1709 441 
Q 2250 441 2565 725 
Q 2881 1009 2881 1497 
Q 2881 1984 2565 2268 
Q 2250 2553 1709 2553 
Q 1456 2553 1204 2497 
Q 953 2441 691 2322 
L 691 4666 
z
" transform="scale(0.015625)"/>
       </defs>
       <use xlink:href="#DejaVuSans-2212"/>
       <use xlink:href="#DejaVuSans-31" transform="translate(83.789062 0)"/>
       <use xlink:href="#DejaVuSans-2e" transform="translate(147.412109 0)"/>
       <use xlink:href="#DejaVuSans-35" transform="translate(179.199219 0)"/>
      </g>
     </g>
    </g>
    <g id="xtick_2">
     <g id="line2d_3">
      <path d="M 151.950532 390.24 
L 151.950532 7.2 
" clip-path="url(#p20fa62afc7)" style="fill: none; stroke: #d7ccba; stroke-opacity: 0.8; stroke-width: 0.8; stroke-linecap: square"/>
     </g>
     <g id="line2d_4">
      <g>
       <use xlink:href="#mf5efb1f4ff" x="151.950532" y="390.24" style="fill: #6e665b; stroke: #6e665b; stroke-width: 0.8"/>
      </g>
     </g>
     <g id="text_2">
      <!-- −1.0 -->
      <g style="fill: #6e665b" transform="translate(139.809126 404.838437) scale(0.1 -0.1)">
       <defs>
        <path id="DejaVuSans-30" d="M 2034 4250 
Q 1547 4250 1301 3770 
Q 1056 3291 1056 2328 
Q 1056 1369 1301 889 
Q 1547 409 2034 409 
Q 2525 409 2770 889 
Q 3016 1369 3016 2328 
Q 3016 3291 2770 3770 
Q 2525 4250 2034 4250 
z
M 2034 4750 
Q 2819 4750 3233 4129 
Q 3647 3509 3647 2328 
Q 3647 1150 3233 529 
Q 2819 -91 2034 -91 
Q 1250 -91 836 529 
Q 422 1150 422 2328 
Q 422 3509 836 4129 
Q 1250 4750 2034 4750 
z
" transform="scale(0.015625)"/>
       </defs>
       <use xlink:href="#DejaVuSans-2212"/>
       <use xlink:href="#DejaVuSans-31" transform="translate(83.789062 0)"/>
       <use xlink:href="#DejaVuSans-2e" transform="translate(147.412109 0)"/>
       <use xlink:href="#DejaVuSans-30" transform="translate(179.199219 0)"/>
      </g>
     </g>
    </g>
    <g id="xtick_3">
     <g id="line2d_5">
      <path d="M 241.723443 390.24 
L 241.723443 7.2 
" clip-path="url(#p20fa62afc7)" style="fill: none; stroke: #d7ccba; stroke-opacity: 0.8; stroke-width: 0.8; stroke-linecap: square"/>
     </g>
     <g id="line2d_6">
      <g>
       <use xlink:href="#mf5efb1f4ff" x="241.723443" y="390.24" style="fill: #6e665b; stroke: #6e665b; stroke-width: 0.8"/>
      </g>
     </g>
     <g id="text_3">
      <!-- −0.5 -->
      <g style="fill: #6e665b" transform="translate(229.582037 404.838437) scale(0.1 -0.1)">
       <use xlink:href="#DejaVuSans-2212"/>
       <use xlink:href="#DejaVuSans-30" transform="translate(83.789062 0)"/>
       <use xlink:href="#DejaVuSans-2e" transform="translate(147.412109 0)"/>
       <use xlink:href="#DejaVuSans-35" transform="translate(179.199219 0)"/>
      </g>
     </g>
    </g>
    <g id="xtick_4">
     <g id="line2d_7">
      <path d="M 331.496354 390.24 
L 331.496354 7.2 
" clip-path="url(#p20fa62afc7)" style="fill: none; stroke: #d7ccba; stroke-opacity: 0.8; stroke-width: 0.8; stroke-linecap: square"/>
     </g>
     <g id="line2d_8">
      <g>
       <use xlink:href="#mf5efb1f4ff" x="331.496354" y="390.24" style="fill: #6e665b; stroke: #6e665b; stroke-width: 0.8"/>
      </g>
     </g>
     <g id="text_4">
      <!-- 0.0 -->
      <g style="fill: #6e665b" transform="translate(323.544791 404.838437) scale(0.1 -0.1)">
       <use xlink:href="#DejaVuSans-30"/>
       <use xlink:href="#DejaVuSans-2e" transform="translate(63.623047 0)"/>
       <use xlink:href="#DejaVuSans-30" transform="translate(95.410156 0)"/>
      </g>
     </g>
    </g>
    <g id="xtick_5">
     <g id="line2d_9">
      <path d="M 421.269265 390.24 
L 421.269265 7.2 
" clip-path="url(#p20fa62afc7)" style="fill: none; stroke: #d7ccba; stroke-opacity: 0.8; stroke-width: 0.8; stroke-linecap: square"/>
     </g>
     <g id="line2d_10">
      <g>
       <use xlink:href="#mf5efb1f4ff" x="421.269265" y="390.24" style="fill: #6e665b; stroke: #6e665b; stroke-width: 0.8"/>
      </g>
     </g>
     <g id="text_5">
      <!-- 0.5 -->
      <g style="fill: #6e665b" transform="translate(413.317702 404.838437) scale(0.1 -0.1)">
       <use xlink:href="#DejaVuSans-30"/>
       <use xlink:href="#DejaVuSans-2e" transform="translate(63.623047 0)"/>
       <use xlink:href="#DejaVuSans-35" transform="translate(95.410156 0)"/>
      </g>
     </g>
    </g>
    <g id="xtick_6">
     <g id="line2d_11">
      <path d="M 511.042175 390.24 
L 511.042175 7.2 
" clip-path="url(#p20fa62afc7)" style="fill: none; stroke: #d7ccba; stroke-opacity: 0.8; stroke-width: 0.8; stroke-linecap: square"/>
     </g>
     <g id="line2d_12">
      <g>
       <use xlink:href="#mf5efb1f4ff" x="511.042175" y="390.24" style="fill: #6e665b; stroke: #6e665b; stroke-width: 0.8"/>
      </g>
     </g>
     <g id="text_6">
      <!-- 1.0 -->
      <g style="fill: #6e665b" transform="translate(503.090613 404.838437) scale(0.1 -0.1)">
       <use xlink:href="#DejaVuSans-31"/>
       <use xlink:href="#DejaVuSans-2e" transform="translate(63.623047 0)"/>
       <use xlink:href="#DejaVuSans-30" transform="translate(95.410156 0)"/>
      </g>
     </g>
    </g>
    <g id="xtick_7">
     <g id="line2d_13">
      <path d="M 600.815086 390.24 
L 600.815086 7.2 
" clip-path="url(#p20fa62afc7)" style="fill: none; stroke: #d7ccba; stroke-opacity: 0.8; stroke-width: 0.8; stroke-linecap: square"/>
     </g>
     <g id="line2d_14">
      <g>
       <use xlink:href="#mf5efb1f4ff" x="600.815086" y="390.24" style="fill: #6e665b; stroke: #6e665b; stroke-width: 0.8"/>
      </g>
     </g>
     <g id="text_7">
      <!-- 1.5 -->
      <g style="fill: #6e665b" transform="translate(592.863524 404.838437) scale(0.1 -0.1)">
       <use xlink:href="#DejaVuSans-31"/>
       <use xlink:href="#DejaVuSans-2e" transform="translate(63.623047 0)"/>
       <use xlink:href="#DejaVuSans-35" transform="translate(95.410156 0)"/>
      </g>
     </g>
    </g>
   </g>
   <g id="matplotlib.axis_2">
    <g id="ytick_1">
     <g id="line2d_15">
      <path d="M 44.749063 327.187525 
L 687.349062 327.187525 
" clip-path="url(#p20fa62afc7)" style="fill: none; stroke: #d7ccba; stroke-opacity: 0.8; stroke-width: 0.8; stroke-linecap: square"/>
     </g>
     <g id="line2d_16">
      <defs>
       <path id="mcbb4181834" d="M 0 0 
L -3.5 0 
" style="stroke: #6e665b; stroke-width: 0.8"/>
      </defs>
      <g>
       <use xlink:href="#mcbb4181834" x="44.749063" y="327.187525" style="fill: #6e665b; stroke: #6e665b; stroke-width: 0.8"/>
      </g>
     </g>
     <g id="text_8">
      <!-- 0.1 -->
      <g style="fill: #6e665b" transform="translate(21.845938 330.986743) scale(0.1 -0.1)">
       <use xlink:href="#DejaVuSans-30"/>
       <use xlink:href="#DejaVuSans-2e" transform="translate(63.623047 0)"/>
       <use xlink:href="#DejaVuSans-31" transform="translate(95.410156 0)"/>
      </g>
     </g>
    </g>
    <g id="ytick_2">
     <g id="line2d_17">
      <path d="M 44.749063 255.369621 
L 687.349062 255.369621 
" clip-path="url(#p20fa62afc7)" style="fill: none; stroke: #d7ccba; stroke-opacity: 0.8; stroke-width: 0.8; stroke-linecap: square"/>
     </g>
     <g id="line2d_18">
      <g>
       <use xlink:href="#mcbb4181834" x="44.749063" y="255.369621" style="fill: #6e665b; stroke: #6e665b; stroke-width: 0.8"/>
      </g>
     </g>
     <g id="text_9">
      <!-- 0.2 -->
      <g style="fill: #6e665b" transform="translate(21.845938 259.16884) scale(0.1 -0.1)">
       <defs>
        <path id="DejaVuSans-32" d="M 1228 531 
L 3431 531 
L 3431 0 
L 469 0 
L 469 531 
Q 828 903 1448 1529 
Q 2069 2156 2228 2338 
Q 2531 2678 2651 2914 
Q 2772 3150 2772 3378 
Q 2772 3750 2511 3984 
Q 2250 4219 1831 4219 
Q 1534 4219 1204 4116 
Q 875 4013 500 3803 
L 500 4441 
Q 881 4594 1212 4672 
Q 1544 4750 1819 4750 
Q 2544 4750 2975 4387 
Q 3406 4025 3406 3419 
Q 3406 3131 3298 2873 
Q 3191 2616 2906 2266 
Q 2828 2175 2409 1742 
Q 1991 1309 1228 531 
z
" transform="scale(0.015625)"/>
       </defs>
       <use xlink:href="#DejaVuSans-30"/>
       <use xlink:href="#DejaVuSans-2e" transform="translate(63.623047 0)"/>
       <use xlink:href="#DejaVuSans-32" transform="translate(95.410156 0)"/>
      </g>
     </g>
    </g>
    <g id="ytick_3">
     <g id="line2d_19">
      <path d="M 44.749063 183.551718 
L 687.349062 183.551718 
" clip-path="url(#p20fa62afc7)" style="fill: none; stroke: #d7ccba; stroke-opacity: 0.8; stroke-width: 0.8; stroke-linecap: square"/>
     </g>
     <g id="line2d_20">
      <g>
       <use xlink:href="#mcbb4181834" x="44.749063" y="183.551718" style="fill: #6e665b; stroke: #6e665b; stroke-width: 0.8"/>
      </g>
     </g>
     <g id="text_10">
      <!-- 0.3 -->
      <g style="fill: #6e665b" transform="translate(21.845938 187.350936) scale(0.1 -0.1)">
       <defs>
        <path id="DejaVuSans-33" d="M 2597 2516 
Q 3050 2419 3304 2112 
Q 3559 1806 3559 1356 
Q 3559 666 3084 287 
Q 2609 -91 1734 -91 
Q 1441 -91 1130 -33 
Q 819 25 488 141 
L 488 750 
Q 750 597 1062 519 
Q 1375 441 1716 441 
Q 2309 441 2620 675 
Q 2931 909 2931 1356 
Q 2931 1769 2642 2001 
Q 2353 2234 1838 2234 
L 1294 2234 
L 1294 2753 
L 1863 2753 
Q 2328 2753 2575 2939 
Q 2822 3125 2822 3475 
Q 2822 3834 2567 4026 
Q 2313 4219 1838 4219 
Q 1578 4219 1281 4162 
Q 984 4106 628 3988 
L 628 4550 
Q 988 4650 1302 4700 
Q 1616 4750 1894 4750 
Q 2613 4750 3031 4423 
Q 3450 4097 3450 3541 
Q 3450 3153 3228 2886 
Q 3006 2619 2597 2516 
z
" transform="scale(0.015625)"/>
       </defs>
       <use xlink:href="#DejaVuSans-30"/>
       <use xlink:href="#DejaVuSans-2e" transform="translate(63.623047 0)"/>
       <use xlink:href="#DejaVuSans-33" transform="translate(95.410156 0)"/>
      </g>
     </g>
    </g>
    <g id="ytick_4">
     <g id="line2d_21">
      <path d="M 44.749063 111.733814 
L 687.349062 111.733814 
" clip-path="url(#p20fa62afc7)" style="fill: none; stroke: #d7ccba; stroke-opacity: 0.8; stroke-width: 0.8; stroke-linecap: square"/>
     </g>
     <g id="line2d_22">
      <g>
       <use xlink:href="#mcbb4181834" x="44.749063" y="111.733814" style="fill: #6e665b; stroke: #6e665b; stroke-width: 0.8"/>
      </g>
     </g>
     <g id="text_11">
      <!-- 0.4 -->
      <g style="fill: #6e665b" transform="translate(21.845938 115.533033) scale(0.1 -0.1)">
       <defs>
        <path id="DejaVuSans-34" d="M 2419 4116 
L 825 1625 
L 2419 1625 
L 2419 4116 
z
M 2253 4666 
L 3047 4666 
L 3047 1625 
L 3713 1625 
L 3713 1100 
L 3047 1100 
L 3047 0 
L 2419 0 
L 2419 1100 
L 313 1100 
L 313 1709 
L 2253 4666 
z
" transform="scale(0.015625)"/>
       </defs>
       <use xlink:href="#DejaVuSans-30"/>
       <use xlink:href="#DejaVuSans-2e" transform="translate(63.623047 0)"/>
       <use xlink:href="#DejaVuSans-34" transform="translate(95.410156 0)"/>
      </g>
     </g>
    </g>
    <g id="ytick_5">
     <g id="line2d_23">
      <path d="M 44.749063 39.915911 
L 687.349062 39.915911 
" clip-path="url(#p20fa62afc7)" style="fill: none; stroke: #d7ccba; stroke-opacity: 0.8; stroke-width: 0.8; stroke-linecap: square"/>
     </g>
     <g id="line2d_24">
      <g>
       <use xlink:href="#mcbb4181834" x="44.749063" y="39.915911" style="fill: #6e665b; stroke: #6e665b; stroke-width: 0.8"/>
      </g>
     </g>
     <g id="text_12">
      <!-- 0.5 -->
      <g style="fill: #6e665b" transform="translate(21.845938 43.715129) scale(0.1 -0.1)">
       <use xlink:href="#DejaVuSans-30"/>
       <use xlink:href="#DejaVuSans-2e" transform="translate(63.623047 0)"/>
       <use xlink:href="#DejaVuSans-35" transform="translate(95.410156 0)"/>
      </g>
     </g>
    </g>
    <g id="text_13">
     <!-- Distance to nearest neighboring family -->
     <g style="fill: #6e665b" transform="translate(15.558281 306.03875) rotate(-90) scale(0.11 -0.11)">
      <defs>
       <path id="DejaVuSans-44" d="M 1259 4147 
L 1259 519 
L 2022 519 
Q 2988 519 3436 956 
Q 3884 1394 3884 2338 
Q 3884 3275 3436 3711 
Q 2988 4147 2022 4147 
L 1259 4147 
z
M 628 4666 
L 1925 4666 
Q 3281 4666 3915 4102 
Q 4550 3538 4550 2338 
Q 4550 1131 3912 565 
Q 3275 0 1925 0 
L 628 0 
L 628 4666 
z
" transform="scale(0.015625)"/>
       <path id="DejaVuSans-69" d="M 603 3500 
L 1178 3500 
L 1178 0 
L 603 0 
L 603 3500 
z
M 603 4863 
L 1178 4863 
L 1178 4134 
L 603 4134 
L 603 4863 
z
" transform="scale(0.015625)"/>
       <path id="DejaVuSans-73" d="M 2834 3397 
L 2834 2853 
Q 2591 2978 2328 3040 
Q 2066 3103 1784 3103 
Q 1356 3103 1142 2972 
Q 928 2841 928 2578 
Q 928 2378 1081 2264 
Q 1234 2150 1697 2047 
L 1894 2003 
Q 2506 1872 2764 1633 
Q 3022 1394 3022 966 
Q 3022 478 2636 193 
Q 2250 -91 1575 -91 
Q 1294 -91 989 -36 
Q 684 19 347 128 
L 347 722 
Q 666 556 975 473 
Q 1284 391 1588 391 
Q 1994 391 2212 530 
Q 2431 669 2431 922 
Q 2431 1156 2273 1281 
Q 2116 1406 1581 1522 
L 1381 1569 
Q 847 1681 609 1914 
Q 372 2147 372 2553 
Q 372 3047 722 3315 
Q 1072 3584 1716 3584 
Q 2034 3584 2315 3537 
Q 2597 3491 2834 3397 
z
" transform="scale(0.015625)"/>
       <path id="DejaVuSans-74" d="M 1172 4494 
L 1172 3500 
L 2356 3500 
L 2356 3053 
L 1172 3053 
L 1172 1153 
Q 1172 725 1289 603 
Q 1406 481 1766 481 
L 2356 481 
L 2356 0 
L 1766 0 
Q 1100 0 847 248 
Q 594 497 594 1153 
L 594 3053 
L 172 3053 
L 172 3500 
L 594 3500 
L 594 4494 
L 1172 4494 
z
" transform="scale(0.015625)"/>
       <path id="DejaVuSans-61" d="M 2194 1759 
Q 1497 1759 1228 1600 
Q 959 1441 959 1056 
Q 959 750 1161 570 
Q 1363 391 1709 391 
Q 2188 391 2477 730 
Q 2766 1069 2766 1631 
L 2766 1759 
L 2194 1759 
z
M 3341 1997 
L 3341 0 
L 2766 0 
L 2766 531 
Q 2569 213 2275 61 
Q 1981 -91 1556 -91 
Q 1019 -91 701 211 
Q 384 513 384 1019 
Q 384 1609 779 1909 
Q 1175 2209 1959 2209 
L 2766 2209 
L 2766 2266 
Q 2766 2663 2505 2880 
Q 2244 3097 1772 3097 
Q 1472 3097 1187 3025 
Q 903 2953 641 2809 
L 641 3341 
Q 956 3463 1253 3523 
Q 1550 3584 1831 3584 
Q 2591 3584 2966 3190 
Q 3341 2797 3341 1997 
z
" transform="scale(0.015625)"/>
       <path id="DejaVuSans-6e" d="M 3513 2113 
L 3513 0 
L 2938 0 
L 2938 2094 
Q 2938 2591 2744 2837 
Q 2550 3084 2163 3084 
Q 1697 3084 1428 2787 
Q 1159 2491 1159 1978 
L 1159 0 
L 581 0 
L 581 3500 
L 1159 3500 
L 1159 2956 
Q 1366 3272 1645 3428 
Q 1925 3584 2291 3584 
Q 2894 3584 3203 3211 
Q 3513 2838 3513 2113 
z
" transform="scale(0.015625)"/>
       <path id="DejaVuSans-63" d="M 3122 3366 
L 3122 2828 
Q 2878 2963 2633 3030 
Q 2388 3097 2138 3097 
Q 1578 3097 1268 2742 
Q 959 2388 959 1747 
Q 959 1106 1268 751 
Q 1578 397 2138 397 
Q 2388 397 2633 464 
Q 2878 531 3122 666 
L 3122 134 
Q 2881 22 2623 -34 
Q 2366 -91 2075 -91 
Q 1284 -91 818 406 
Q 353 903 353 1747 
Q 353 2603 823 3093 
Q 1294 3584 2113 3584 
Q 2378 3584 2631 3529 
Q 2884 3475 3122 3366 
z
" transform="scale(0.015625)"/>
       <path id="DejaVuSans-65" d="M 3597 1894 
L 3597 1613 
L 953 1613 
Q 991 1019 1311 708 
Q 1631 397 2203 397 
Q 2534 397 2845 478 
Q 3156 559 3463 722 
L 3463 178 
Q 3153 47 2828 -22 
Q 2503 -91 2169 -91 
Q 1331 -91 842 396 
Q 353 884 353 1716 
Q 353 2575 817 3079 
Q 1281 3584 2069 3584 
Q 2775 3584 3186 3129 
Q 3597 2675 3597 1894 
z
M 3022 2063 
Q 3016 2534 2758 2815 
Q 2500 3097 2075 3097 
Q 1594 3097 1305 2825 
Q 1016 2553 972 2059 
L 3022 2063 
z
" transform="scale(0.015625)"/>
       <path id="DejaVuSans-20" transform="scale(0.015625)"/>
       <path id="DejaVuSans-6f" d="M 1959 3097 
Q 1497 3097 1228 2736 
Q 959 2375 959 1747 
Q 959 1119 1226 758 
Q 1494 397 1959 397 
Q 2419 397 2687 759 
Q 2956 1122 2956 1747 
Q 2956 2369 2687 2733 
Q 2419 3097 1959 3097 
z
M 1959 3584 
Q 2709 3584 3137 3096 
Q 3566 2609 3566 1747 
Q 3566 888 3137 398 
Q 2709 -91 1959 -91 
Q 1206 -91 779 398 
Q 353 888 353 1747 
Q 353 2609 779 3096 
Q 1206 3584 1959 3584 
z
" transform="scale(0.015625)"/>
       <path id="DejaVuSans-72" d="M 2631 2963 
Q 2534 3019 2420 3045 
Q 2306 3072 2169 3072 
Q 1681 3072 1420 2755 
Q 1159 2438 1159 1844 
L 1159 0 
L 581 0 
L 581 3500 
L 1159 3500 
L 1159 2956 
Q 1341 3275 1631 3429 
Q 1922 3584 2338 3584 
Q 2397 3584 2469 3576 
Q 2541 3569 2628 3553 
L 2631 2963 
z
" transform="scale(0.015625)"/>
       <path id="DejaVuSans-67" d="M 2906 1791 
Q 2906 2416 2648 2759 
Q 2391 3103 1925 3103 
Q 1463 3103 1205 2759 
Q 947 2416 947 1791 
Q 947 1169 1205 825 
Q 1463 481 1925 481 
Q 2391 481 2648 825 
Q 2906 1169 2906 1791 
z
M 3481 434 
Q 3481 -459 3084 -895 
Q 2688 -1331 1869 -1331 
Q 1566 -1331 1297 -1286 
Q 1028 -1241 775 -1147 
L 775 -588 
Q 1028 -725 1275 -790 
Q 1522 -856 1778 -856 
Q 2344 -856 2625 -561 
Q 2906 -266 2906 331 
L 2906 616 
Q 2728 306 2450 153 
Q 2172 0 1784 0 
Q 1141 0 747 490 
Q 353 981 353 1791 
Q 353 2603 747 3093 
Q 1141 3584 1784 3584 
Q 2172 3584 2450 3431 
Q 2728 3278 2906 2969 
L 2906 3500 
L 3481 3500 
L 3481 434 
z
" transform="scale(0.015625)"/>
       <path id="DejaVuSans-68" d="M 3513 2113 
L 3513 0 
L 2938 0 
L 2938 2094 
Q 2938 2591 2744 2837 
Q 2550 3084 2163 3084 
Q 1697 3084 1428 2787 
Q 1159 2491 1159 1978 
L 1159 0 
L 581 0 
L 581 4863 
L 1159 4863 
L 1159 2956 
Q 1366 3272 1645 3428 
Q 1925 3584 2291 3584 
Q 2894 3584 3203 3211 
Q 3513 2838 3513 2113 
z
" transform="scale(0.015625)"/>
       <path id="DejaVuSans-62" d="M 3116 1747 
Q 3116 2381 2855 2742 
Q 2594 3103 2138 3103 
Q 1681 3103 1420 2742 
Q 1159 2381 1159 1747 
Q 1159 1113 1420 752 
Q 1681 391 2138 391 
Q 2594 391 2855 752 
Q 3116 1113 3116 1747 
z
M 1159 2969 
Q 1341 3281 1617 3432 
Q 1894 3584 2278 3584 
Q 2916 3584 3314 3078 
Q 3713 2572 3713 1747 
Q 3713 922 3314 415 
Q 2916 -91 2278 -91 
Q 1894 -91 1617 61 
Q 1341 213 1159 525 
L 1159 0 
L 581 0 
L 581 4863 
L 1159 4863 
L 1159 2969 
z
" transform="scale(0.015625)"/>
       <path id="DejaVuSans-66" d="M 2375 4863 
L 2375 4384 
L 1825 4384 
Q 1516 4384 1395 4259 
Q 1275 4134 1275 3809 
L 1275 3500 
L 2222 3500 
L 2222 3053 
L 1275 3053 
L 1275 0 
L 697 0 
L 697 3053 
L 147 3053 
L 147 3500 
L 697 3500 
L 697 3744 
Q 697 4328 969 4595 
Q 1241 4863 1831 4863 
L 2375 4863 
z
" transform="scale(0.015625)"/>
       <path id="DejaVuSans-6d" d="M 3328 2828 
Q 3544 3216 3844 3400 
Q 4144 3584 4550 3584 
Q 5097 3584 5394 3201 
Q 5691 2819 5691 2113 
L 5691 0 
L 5113 0 
L 5113 2094 
Q 5113 2597 4934 2840 
Q 4756 3084 4391 3084 
Q 3944 3084 3684 2787 
Q 3425 2491 3425 1978 
L 3425 0 
L 2847 0 
L 2847 2094 
Q 2847 2600 2669 2842 
Q 2491 3084 2119 3084 
Q 1678 3084 1418 2786 
Q 1159 2488 1159 1978 
L 1159 0 
L 581 0 
L 581 3500 
L 1159 3500 
L 1159 2956 
Q 1356 3278 1631 3431 
Q 1906 3584 2284 3584 
Q 2666 3584 2933 3390 
Q 3200 3197 3328 2828 
z
" transform="scale(0.015625)"/>
       <path id="DejaVuSans-6c" d="M 603 4863 
L 1178 4863 
L 1178 0 
L 603 0 
L 603 4863 
z
" transform="scale(0.015625)"/>
       <path id="DejaVuSans-79" d="M 2059 -325 
Q 1816 -950 1584 -1140 
Q 1353 -1331 966 -1331 
L 506 -1331 
L 506 -850 
L 844 -850 
Q 1081 -850 1212 -737 
Q 1344 -625 1503 -206 
L 1606 56 
L 191 3500 
L 800 3500 
L 1894 763 
L 2988 3500 
L 3597 3500 
L 2059 -325 
z
" transform="scale(0.015625)"/>
      </defs>
      <use xlink:href="#DejaVuSans-44"/>
      <use xlink:href="#DejaVuSans-69" transform="translate(77.001953 0)"/>
      <use xlink:href="#DejaVuSans-73" transform="translate(104.785156 0)"/>
      <use xlink:href="#DejaVuSans-74" transform="translate(156.884766 0)"/>
      <use xlink:href="#DejaVuSans-61" transform="translate(196.09375 0)"/>
      <use xlink:href="#DejaVuSans-6e" transform="translate(257.373047 0)"/>
      <use xlink:href="#DejaVuSans-63" transform="translate(320.751953 0)"/>
      <use xlink:href="#DejaVuSans-65" transform="translate(375.732422 0)"/>
      <use xlink:href="#DejaVuSans-20" transform="translate(437.255859 0)"/>
      <use xlink:href="#DejaVuSans-74" transform="translate(469.042969 0)"/>
      <use xlink:href="#DejaVuSans-6f" transform="translate(508.251953 0)"/>
      <use xlink:href="#DejaVuSans-20" transform="translate(569.433594 0)"/>
      <use xlink:href="#DejaVuSans-6e" transform="translate(601.220703 0)"/>
      <use xlink:href="#DejaVuSans-65" transform="translate(664.599609 0)"/>
      <use xlink:href="#DejaVuSans-61" transform="translate(726.123047 0)"/>
      <use xlink:href="#DejaVuSans-72" transform="translate(787.402344 0)"/>
      <use xlink:href="#DejaVuSans-65" transform="translate(826.265625 0)"/>
      <use xlink:href="#DejaVuSans-73" transform="translate(887.789062 0)"/>
      <use xlink:href="#DejaVuSans-74" transform="translate(939.888672 0)"/>
      <use xlink:href="#DejaVuSans-20" transform="translate(979.097656 0)"/>
      <use xlink:href="#DejaVuSans-6e" transform="translate(1010.884766 0)"/>
      <use xlink:href="#DejaVuSans-65" transform="translate(1074.263672 0)"/>
      <use xlink:href="#DejaVuSans-69" transform="translate(1135.787109 0)"/>
      <use xlink:href="#DejaVuSans-67" transform="translate(1163.570312 0)"/>
      <use xlink:href="#DejaVuSans-68" transform="translate(1227.046875 0)"/>
      <use xlink:href="#DejaVuSans-62" transform="translate(1290.425781 0)"/>
      <use xlink:href="#DejaVuSans-6f" transform="translate(1353.902344 0)"/>
      <use xlink:href="#DejaVuSans-72" transform="translate(1415.083984 0)"/>
      <use xlink:href="#DejaVuSans-69" transform="translate(1456.197266 0)"/>
      <use xlink:href="#DejaVuSans-6e" transform="translate(1483.980469 0)"/>
      <use xlink:href="#DejaVuSans-67" transform="translate(1547.359375 0)"/>
      <use xlink:href="#DejaVuSans-20" transform="translate(1610.835938 0)"/>
      <use xlink:href="#DejaVuSans-66" transform="translate(1642.623047 0)"/>
      <use xlink:href="#DejaVuSans-61" transform="translate(1677.828125 0)"/>
      <use xlink:href="#DejaVuSans-6d" transform="translate(1739.107422 0)"/>
      <use xlink:href="#DejaVuSans-69" transform="translate(1836.519531 0)"/>
      <use xlink:href="#DejaVuSans-6c" transform="translate(1864.302734 0)"/>
      <use xlink:href="#DejaVuSans-79" transform="translate(1892.085938 0)"/>
     </g>
    </g>
   </g>
   <g id="patch_3">
    <path d="M 44.749063 390.24 
L 44.749063 7.2 
" style="fill: none; stroke: #8d877e; stroke-width: 1.2; stroke-linejoin: miter; stroke-linecap: square"/>
   </g>
   <g id="patch_4">
    <path d="M 44.749063 390.24 
L 687.349062 390.24 
" style="fill: none; stroke: #8d877e; stroke-width: 1.2; stroke-linejoin: miter; stroke-linecap: square"/>
   </g>
   <g id="PathCollection_1">
    <defs>
     <path id="m7be73619f8" d="M 0 13.36201 
C 3.543646 13.36201 6.942631 11.954104 9.448368 9.448368 
C 11.954104 6.942631 13.36201 3.543646 13.36201 0 
C 13.36201 -3.543646 11.954104 -6.942631 9.448368 -9.448368 
C 6.942631 -11.954104 3.543646 -13.36201 0 -13.36201 
C -3.543646 -13.36201 -6.942631 -11.954104 -9.448368 -9.448368 
C -11.954104 -6.942631 -13.36201 -3.543646 -13.36201 0 
C -13.36201 3.543646 -11.954104 6.942631 -9.448368 9.448368 
C -6.942631 11.954104 -3.543646 13.36201 0 13.36201 
z
" style="stroke: #ffffff; stroke-opacity: 0.9; stroke-width: 2.2"/>
    </defs>
    <g clip-path="url(#p20fa62afc7)">
     <use xlink:href="#m7be73619f8" x="633.485316" y="343.558363" style="fill: #315f72; fill-opacity: 0.9; stroke: #ffffff; stroke-opacity: 0.9; stroke-width: 2.2"/>
    </g>
   </g>
   <g id="text_14">
    <!-- editorial -->
    <g style="fill: #315f72" transform="translate(579.59316 309.027615) scale(0.102 -0.102)">
     <defs>
      <path id="DejaVuSans-Bold-65" d="M 4031 1759 
L 4031 1441 
L 1416 1441 
Q 1456 1047 1700 850 
Q 1944 653 2381 653 
Q 2734 653 3104 758 
Q 3475 863 3866 1075 
L 3866 213 
Q 3469 63 3072 -14 
Q 2675 -91 2278 -91 
Q 1328 -91 801 392 
Q 275 875 275 1747 
Q 275 2603 792 3093 
Q 1309 3584 2216 3584 
Q 3041 3584 3536 3087 
Q 4031 2591 4031 1759 
z
M 2881 2131 
Q 2881 2450 2695 2645 
Q 2509 2841 2209 2841 
Q 1884 2841 1681 2658 
Q 1478 2475 1428 2131 
L 2881 2131 
z
" transform="scale(0.015625)"/>
      <path id="DejaVuSans-Bold-64" d="M 2919 2988 
L 2919 4863 
L 4044 4863 
L 4044 0 
L 2919 0 
L 2919 506 
Q 2688 197 2409 53 
Q 2131 -91 1766 -91 
Q 1119 -91 703 423 
Q 288 938 288 1747 
Q 288 2556 703 3070 
Q 1119 3584 1766 3584 
Q 2128 3584 2408 3439 
Q 2688 3294 2919 2988 
z
M 2181 722 
Q 2541 722 2730 984 
Q 2919 1247 2919 1747 
Q 2919 2247 2730 2509 
Q 2541 2772 2181 2772 
Q 1825 2772 1636 2509 
Q 1447 2247 1447 1747 
Q 1447 1247 1636 984 
Q 1825 722 2181 722 
z
" transform="scale(0.015625)"/>
      <path id="DejaVuSans-Bold-69" d="M 538 3500 
L 1656 3500 
L 1656 0 
L 538 0 
L 538 3500 
z
M 538 4863 
L 1656 4863 
L 1656 3950 
L 538 3950 
L 538 4863 
z
" transform="scale(0.015625)"/>
      <path id="DejaVuSans-Bold-74" d="M 1759 4494 
L 1759 3500 
L 2913 3500 
L 2913 2700 
L 1759 2700 
L 1759 1216 
Q 1759 972 1856 886 
Q 1953 800 2241 800 
L 2816 800 
L 2816 0 
L 1856 0 
Q 1194 0 917 276 
Q 641 553 641 1216 
L 641 2700 
L 84 2700 
L 84 3500 
L 641 3500 
L 641 4494 
L 1759 4494 
z
" transform="scale(0.015625)"/>
      <path id="DejaVuSans-Bold-6f" d="M 2203 2784 
Q 1831 2784 1636 2517 
Q 1441 2250 1441 1747 
Q 1441 1244 1636 976 
Q 1831 709 2203 709 
Q 2569 709 2762 976 
Q 2956 1244 2956 1747 
Q 2956 2250 2762 2517 
Q 2569 2784 2203 2784 
z
M 2203 3584 
Q 3106 3584 3614 3096 
Q 4122 2609 4122 1747 
Q 4122 884 3614 396 
Q 3106 -91 2203 -91 
Q 1297 -91 786 396 
Q 275 884 275 1747 
Q 275 2609 786 3096 
Q 1297 3584 2203 3584 
z
" transform="scale(0.015625)"/>
      <path id="DejaVuSans-Bold-72" d="M 3138 2547 
Q 2991 2616 2845 2648 
Q 2700 2681 2553 2681 
Q 2122 2681 1889 2404 
Q 1656 2128 1656 1613 
L 1656 0 
L 538 0 
L 538 3500 
L 1656 3500 
L 1656 2925 
Q 1872 3269 2151 3426 
Q 2431 3584 2822 3584 
Q 2878 3584 2943 3579 
Q 3009 3575 3134 3559 
L 3138 2547 
z
" transform="scale(0.015625)"/>
      <path id="DejaVuSans-Bold-61" d="M 2106 1575 
Q 1756 1575 1579 1456 
Q 1403 1338 1403 1106 
Q 1403 894 1545 773 
Q 1688 653 1941 653 
Q 2256 653 2472 879 
Q 2688 1106 2688 1447 
L 2688 1575 
L 2106 1575 
z
M 3816 1997 
L 3816 0 
L 2688 0 
L 2688 519 
Q 2463 200 2181 54 
Q 1900 -91 1497 -91 
Q 953 -91 614 226 
Q 275 544 275 1050 
Q 275 1666 698 1953 
Q 1122 2241 2028 2241 
L 2688 2241 
L 2688 2328 
Q 2688 2594 2478 2717 
Q 2269 2841 1825 2841 
Q 1466 2841 1156 2769 
Q 847 2697 581 2553 
L 581 3406 
Q 941 3494 1303 3539 
Q 1666 3584 2028 3584 
Q 2975 3584 3395 3211 
Q 3816 2838 3816 1997 
z
" transform="scale(0.015625)"/>
      <path id="DejaVuSans-Bold-6c" d="M 538 4863 
L 1656 4863 
L 1656 0 
L 538 0 
L 538 4863 
z
" transform="scale(0.015625)"/>
     </defs>
     <use xlink:href="#DejaVuSans-Bold-65"/>
     <use xlink:href="#DejaVuSans-Bold-64" transform="translate(67.822266 0)"/>
     <use xlink:href="#DejaVuSans-Bold-69" transform="translate(139.404297 0)"/>
     <use xlink:href="#DejaVuSans-Bold-74" transform="translate(173.681641 0)"/>
     <use xlink:href="#DejaVuSans-Bold-6f" transform="translate(221.484375 0)"/>
     <use xlink:href="#DejaVuSans-Bold-72" transform="translate(290.185547 0)"/>
     <use xlink:href="#DejaVuSans-Bold-69" transform="translate(339.501953 0)"/>
     <use xlink:href="#DejaVuSans-Bold-61" transform="translate(373.779297 0)"/>
     <use xlink:href="#DejaVuSans-Bold-6c" transform="translate(441.259766 0)"/>
    </g>
   </g>
   <g id="PathCollection_2">
    <defs>
     <path id="m175ee4db20" d="M 0 29.580399 
C 7.844813 29.580399 15.36938 26.463621 20.916501 20.916501 
C 26.463621 15.36938 29.580399 7.844813 29.580399 0 
C 29.580399 -7.844813 26.463621 -15.36938 20.916501 -20.916501 
C 15.36938 -26.463621 7.844813 -29.580399 0 -29.580399 
C -7.844813 -29.580399 -15.36938 -26.463621 -20.916501 -20.916501 
C -26.463621 -15.36938 -29.580399 -7.844813 -29.580399 0 
C -29.580399 7.844813 -26.463621 15.36938 -20.916501 20.916501 
C -15.36938 26.463621 -7.844813 29.580399 0 29.580399 
z
" style="stroke: #ffffff; stroke-opacity: 0.9; stroke-width: 2.2"/>
    </defs>
    <g clip-path="url(#p20fa62afc7)">
     <use xlink:href="#m175ee4db20" x="474.694771" y="343.558363" style="fill: #5c8f78; fill-opacity: 0.9; stroke: #ffffff; stroke-opacity: 0.9; stroke-width: 2.2"/>
    </g>
   </g>
   <g id="text_15">
    <!-- procedural-professional -->
    <g style="fill: #5c8f78" transform="translate(405.949959 293.945856) scale(0.102 -0.102)">
     <defs>
      <path id="DejaVuSans-Bold-70" d="M 1656 506 
L 1656 -1331 
L 538 -1331 
L 538 3500 
L 1656 3500 
L 1656 2988 
Q 1888 3294 2169 3439 
Q 2450 3584 2816 3584 
Q 3463 3584 3878 3070 
Q 4294 2556 4294 1747 
Q 4294 938 3878 423 
Q 3463 -91 2816 -91 
Q 2450 -91 2169 54 
Q 1888 200 1656 506 
z
M 2400 2772 
Q 2041 2772 1848 2508 
Q 1656 2244 1656 1747 
Q 1656 1250 1848 986 
Q 2041 722 2400 722 
Q 2759 722 2948 984 
Q 3138 1247 3138 1747 
Q 3138 2247 2948 2509 
Q 2759 2772 2400 2772 
z
" transform="scale(0.015625)"/>
      <path id="DejaVuSans-Bold-63" d="M 3366 3391 
L 3366 2478 
Q 3138 2634 2908 2709 
Q 2678 2784 2431 2784 
Q 1963 2784 1702 2511 
Q 1441 2238 1441 1747 
Q 1441 1256 1702 982 
Q 1963 709 2431 709 
Q 2694 709 2930 787 
Q 3166 866 3366 1019 
L 3366 103 
Q 3103 6 2833 -42 
Q 2563 -91 2291 -91 
Q 1344 -91 809 395 
Q 275 881 275 1747 
Q 275 2613 809 3098 
Q 1344 3584 2291 3584 
Q 2566 3584 2833 3536 
Q 3100 3488 3366 3391 
z
" transform="scale(0.015625)"/>
      <path id="DejaVuSans-Bold-75" d="M 500 1363 
L 500 3500 
L 1625 3500 
L 1625 3150 
Q 1625 2866 1622 2436 
Q 1619 2006 1619 1863 
Q 1619 1441 1641 1255 
Q 1663 1069 1716 984 
Q 1784 875 1895 815 
Q 2006 756 2150 756 
Q 2500 756 2700 1025 
Q 2900 1294 2900 1772 
L 2900 3500 
L 4019 3500 
L 4019 0 
L 2900 0 
L 2900 506 
Q 2647 200 2364 54 
Q 2081 -91 1741 -91 
Q 1134 -91 817 281 
Q 500 653 500 1363 
z
" transform="scale(0.015625)"/>
      <path id="DejaVuSans-Bold-2d" d="M 347 2297 
L 2309 2297 
L 2309 1388 
L 347 1388 
L 347 2297 
z
" transform="scale(0.015625)"/>
      <path id="DejaVuSans-Bold-66" d="M 2841 4863 
L 2841 4128 
L 2222 4128 
Q 1984 4128 1890 4042 
Q 1797 3956 1797 3744 
L 1797 3500 
L 2753 3500 
L 2753 2700 
L 1797 2700 
L 1797 0 
L 678 0 
L 678 2700 
L 122 2700 
L 122 3500 
L 678 3500 
L 678 3744 
Q 678 4316 997 4589 
Q 1316 4863 1984 4863 
L 2841 4863 
z
" transform="scale(0.015625)"/>
      <path id="DejaVuSans-Bold-73" d="M 3272 3391 
L 3272 2541 
Q 2913 2691 2578 2766 
Q 2244 2841 1947 2841 
Q 1628 2841 1473 2761 
Q 1319 2681 1319 2516 
Q 1319 2381 1436 2309 
Q 1553 2238 1856 2203 
L 2053 2175 
Q 2913 2066 3209 1816 
Q 3506 1566 3506 1031 
Q 3506 472 3093 190 
Q 2681 -91 1863 -91 
Q 1516 -91 1145 -36 
Q 775 19 384 128 
L 384 978 
Q 719 816 1070 734 
Q 1422 653 1784 653 
Q 2113 653 2278 743 
Q 2444 834 2444 1013 
Q 2444 1163 2330 1236 
Q 2216 1309 1875 1350 
L 1678 1375 
Q 931 1469 631 1722 
Q 331 1975 331 2491 
Q 331 3047 712 3315 
Q 1094 3584 1881 3584 
Q 2191 3584 2531 3537 
Q 2872 3491 3272 3391 
z
" transform="scale(0.015625)"/>
      <path id="DejaVuSans-Bold-6e" d="M 4056 2131 
L 4056 0 
L 2931 0 
L 2931 347 
L 2931 1631 
Q 2931 2084 2911 2256 
Q 2891 2428 2841 2509 
Q 2775 2619 2662 2680 
Q 2550 2741 2406 2741 
Q 2056 2741 1856 2470 
Q 1656 2200 1656 1722 
L 1656 0 
L 538 0 
L 538 3500 
L 1656 3500 
L 1656 2988 
Q 1909 3294 2193 3439 
Q 2478 3584 2822 3584 
Q 3428 3584 3742 3212 
Q 4056 2841 4056 2131 
z
" transform="scale(0.015625)"/>
     </defs>
     <use xlink:href="#DejaVuSans-Bold-70"/>
     <use xlink:href="#DejaVuSans-Bold-72" transform="translate(71.582031 0)"/>
     <use xlink:href="#DejaVuSans-Bold-6f" transform="translate(120.898438 0)"/>
     <use xlink:href="#DejaVuSans-Bold-63" transform="translate(189.599609 0)"/>
     <use xlink:href="#DejaVuSans-Bold-65" transform="translate(248.876953 0)"/>
     <use xlink:href="#DejaVuSans-Bold-64" transform="translate(316.699219 0)"/>
     <use xlink:href="#DejaVuSans-Bold-75" transform="translate(388.28125 0)"/>
     <use xlink:href="#DejaVuSans-Bold-72" transform="translate(459.472656 0)"/>
     <use xlink:href="#DejaVuSans-Bold-61" transform="translate(508.789062 0)"/>
     <use xlink:href="#DejaVuSans-Bold-6c" transform="translate(576.269531 0)"/>
     <use xlink:href="#DejaVuSans-Bold-2d" transform="translate(610.546875 0)"/>
     <use xlink:href="#DejaVuSans-Bold-70" transform="translate(652.050781 0)"/>
     <use xlink:href="#DejaVuSans-Bold-72" transform="translate(723.632812 0)"/>
     <use xlink:href="#DejaVuSans-Bold-6f" transform="translate(772.949219 0)"/>
     <use xlink:href="#DejaVuSans-Bold-66" transform="translate(841.650391 0)"/>
     <use xlink:href="#DejaVuSans-Bold-65" transform="translate(885.15625 0)"/>
     <use xlink:href="#DejaVuSans-Bold-73" transform="translate(952.978516 0)"/>
     <use xlink:href="#DejaVuSans-Bold-73" transform="translate(1012.5 0)"/>
     <use xlink:href="#DejaVuSans-Bold-69" transform="translate(1072.021484 0)"/>
     <use xlink:href="#DejaVuSans-Bold-6f" transform="translate(1106.298828 0)"/>
     <use xlink:href="#DejaVuSans-Bold-6e" transform="translate(1175 0)"/>
     <use xlink:href="#DejaVuSans-Bold-61" transform="translate(1246.191406 0)"/>
     <use xlink:href="#DejaVuSans-Bold-6c" transform="translate(1313.671875 0)"/>
    </g>
   </g>
   <g id="PathCollection_3">
    <defs>
     <path id="m7714e32f91" d="M 0 20.171509 
C 5.349547 20.171509 10.48071 18.046111 14.263411 14.263411 
C 18.046111 10.48071 20.171509 5.349547 20.171509 0 
C 20.171509 -5.349547 18.046111 -10.48071 14.263411 -14.263411 
C 10.48071 -18.046111 5.349547 -20.171509 0 -20.171509 
C -5.349547 -20.171509 -10.48071 -18.046111 -14.263411 -14.263411 
C -18.046111 -10.48071 -20.171509 -5.349547 -20.171509 0 
C -20.171509 5.349547 -18.046111 10.48071 -14.263411 14.263411 
C -10.48071 18.046111 -5.349547 20.171509 0 20.171509 
z
" style="stroke: #ffffff; stroke-opacity: 0.9; stroke-width: 2.2"/>
    </defs>
    <g clip-path="url(#p20fa62afc7)">
     <use xlink:href="#m7714e32f91" x="242.452989" y="293.114107" style="fill: #9dbb8a; fill-opacity: 0.9; stroke: #ffffff; stroke-opacity: 0.9; stroke-width: 2.2"/>
    </g>
   </g>
   <g id="text_16">
    <!-- grounded-social -->
    <g style="fill: #9dbb8a" transform="translate(196.144989 258.543516) scale(0.102 -0.102)">
     <defs>
      <path id="DejaVuSans-Bold-67" d="M 2919 594 
Q 2688 288 2409 144 
Q 2131 0 1766 0 
Q 1125 0 706 504 
Q 288 1009 288 1791 
Q 288 2575 706 3076 
Q 1125 3578 1766 3578 
Q 2131 3578 2409 3434 
Q 2688 3291 2919 2981 
L 2919 3500 
L 4044 3500 
L 4044 353 
Q 4044 -491 3511 -936 
Q 2978 -1381 1966 -1381 
Q 1638 -1381 1331 -1331 
Q 1025 -1281 716 -1178 
L 716 -306 
Q 1009 -475 1290 -558 
Q 1572 -641 1856 -641 
Q 2406 -641 2662 -400 
Q 2919 -159 2919 353 
L 2919 594 
z
M 2181 2772 
Q 1834 2772 1640 2515 
Q 1447 2259 1447 1791 
Q 1447 1309 1634 1061 
Q 1822 813 2181 813 
Q 2531 813 2725 1069 
Q 2919 1325 2919 1791 
Q 2919 2259 2725 2515 
Q 2531 2772 2181 2772 
z
" transform="scale(0.015625)"/>
     </defs>
     <use xlink:href="#DejaVuSans-Bold-67"/>
     <use xlink:href="#DejaVuSans-Bold-72" transform="translate(71.582031 0)"/>
     <use xlink:href="#DejaVuSans-Bold-6f" transform="translate(120.898438 0)"/>
     <use xlink:href="#DejaVuSans-Bold-75" transform="translate(189.599609 0)"/>
     <use xlink:href="#DejaVuSans-Bold-6e" transform="translate(260.791016 0)"/>
     <use xlink:href="#DejaVuSans-Bold-64" transform="translate(331.982422 0)"/>
     <use xlink:href="#DejaVuSans-Bold-65" transform="translate(403.564453 0)"/>
     <use xlink:href="#DejaVuSans-Bold-64" transform="translate(471.386719 0)"/>
     <use xlink:href="#DejaVuSans-Bold-2d" transform="translate(542.96875 0)"/>
     <use xlink:href="#DejaVuSans-Bold-73" transform="translate(584.472656 0)"/>
     <use xlink:href="#DejaVuSans-Bold-6f" transform="translate(643.994141 0)"/>
     <use xlink:href="#DejaVuSans-Bold-63" transform="translate(712.695312 0)"/>
     <use xlink:href="#DejaVuSans-Bold-69" transform="translate(771.972656 0)"/>
     <use xlink:href="#DejaVuSans-Bold-61" transform="translate(806.25 0)"/>
     <use xlink:href="#DejaVuSans-Bold-6c" transform="translate(873.730469 0)"/>
    </g>
   </g>
   <g id="PathCollection_4">
    <defs>
     <path id="m13ed4df914" d="M 0 16.60092 
C 4.402615 16.60092 8.625504 14.851743 11.738623 11.738623 
C 14.851743 8.625504 16.60092 4.402615 16.60092 0 
C 16.60092 -4.402615 14.851743 -8.625504 11.738623 -11.738623 
C 8.625504 -14.851743 4.402615 -16.60092 0 -16.60092 
C -4.402615 -16.60092 -8.625504 -14.851743 -11.738623 -11.738623 
C -14.851743 -8.625504 -16.60092 -4.402615 -16.60092 0 
C -16.60092 4.402615 -14.851743 8.625504 -11.738623 11.738623 
C -8.625504 14.851743 -4.402615 16.60092 0 16.60092 
z
" style="stroke: #ffffff; stroke-opacity: 0.9; stroke-width: 2.2"/>
    </defs>
    <g clip-path="url(#p20fa62afc7)">
     <use xlink:href="#m13ed4df914" x="166.113145" y="293.114107" style="fill: #b99b72; fill-opacity: 0.9; stroke: #ffffff; stroke-opacity: 0.9; stroke-width: 2.2"/>
    </g>
   </g>
   <g id="text_17">
    <!-- other -->
    <g style="fill: #b99b72" transform="translate(150.56691 264.328792) scale(0.102 -0.102)">
     <defs>
      <path id="DejaVuSans-Bold-68" d="M 4056 2131 
L 4056 0 
L 2931 0 
L 2931 347 
L 2931 1625 
Q 2931 2084 2911 2256 
Q 2891 2428 2841 2509 
Q 2775 2619 2662 2680 
Q 2550 2741 2406 2741 
Q 2056 2741 1856 2470 
Q 1656 2200 1656 1722 
L 1656 0 
L 538 0 
L 538 4863 
L 1656 4863 
L 1656 2988 
Q 1909 3294 2193 3439 
Q 2478 3584 2822 3584 
Q 3428 3584 3742 3212 
Q 4056 2841 4056 2131 
z
" transform="scale(0.015625)"/>
     </defs>
     <use xlink:href="#DejaVuSans-Bold-6f"/>
     <use xlink:href="#DejaVuSans-Bold-74" transform="translate(68.701172 0)"/>
     <use xlink:href="#DejaVuSans-Bold-68" transform="translate(116.503906 0)"/>
     <use xlink:href="#DejaVuSans-Bold-65" transform="translate(187.695312 0)"/>
     <use xlink:href="#DejaVuSans-Bold-72" transform="translate(255.517578 0)"/>
    </g>
   </g>
   <g id="PathCollection_5">
    <defs>
     <path id="mfa611252ae" d="M 0 13.988184 
C 3.70971 13.988184 7.267979 12.514301 9.89114 9.89114 
C 12.514301 7.267979 13.988184 3.70971 13.988184 0 
C 13.988184 -3.70971 12.514301 -7.267979 9.89114 -9.89114 
C 7.267979 -12.514301 3.70971 -13.988184 0 -13.988184 
C -3.70971 -13.988184 -7.267979 -12.514301 -9.89114 -9.89114 
C -12.514301 -7.267979 -13.988184 -3.70971 -13.988184 0 
C -13.988184 3.70971 -12.514301 7.267979 -9.89114 9.89114 
C -7.267979 12.514301 -3.70971 13.988184 0 13.988184 
z
" style="stroke: #ffffff; stroke-opacity: 0.9; stroke-width: 2.2"/>
    </defs>
    <g clip-path="url(#p20fa62afc7)">
     <use xlink:href="#mfa611252ae" x="219.684686" y="218.501164" style="fill: #b35f49; fill-opacity: 0.9; stroke: #ffffff; stroke-opacity: 0.9; stroke-width: 2.2"/>
    </g>
   </g>
   <g id="text_18">
    <!-- combative-iconoclast -->
    <g style="fill: #b35f49" transform="translate(158.568358 182.534058) scale(0.102 -0.102)">
     <defs>
      <path id="DejaVuSans-Bold-6d" d="M 3781 2919 
Q 3994 3244 4286 3414 
Q 4578 3584 4928 3584 
Q 5531 3584 5847 3212 
Q 6163 2841 6163 2131 
L 6163 0 
L 5038 0 
L 5038 1825 
Q 5041 1866 5042 1909 
Q 5044 1953 5044 2034 
Q 5044 2406 4934 2573 
Q 4825 2741 4581 2741 
Q 4263 2741 4089 2478 
Q 3916 2216 3909 1719 
L 3909 0 
L 2784 0 
L 2784 1825 
Q 2784 2406 2684 2573 
Q 2584 2741 2328 2741 
Q 2006 2741 1831 2477 
Q 1656 2213 1656 1722 
L 1656 0 
L 531 0 
L 531 3500 
L 1656 3500 
L 1656 2988 
Q 1863 3284 2130 3434 
Q 2397 3584 2719 3584 
Q 3081 3584 3359 3409 
Q 3638 3234 3781 2919 
z
" transform="scale(0.015625)"/>
      <path id="DejaVuSans-Bold-62" d="M 2400 722 
Q 2759 722 2948 984 
Q 3138 1247 3138 1747 
Q 3138 2247 2948 2509 
Q 2759 2772 2400 2772 
Q 2041 2772 1848 2508 
Q 1656 2244 1656 1747 
Q 1656 1250 1848 986 
Q 2041 722 2400 722 
z
M 1656 2988 
Q 1888 3294 2169 3439 
Q 2450 3584 2816 3584 
Q 3463 3584 3878 3070 
Q 4294 2556 4294 1747 
Q 4294 938 3878 423 
Q 3463 -91 2816 -91 
Q 2450 -91 2169 54 
Q 1888 200 1656 506 
L 1656 0 
L 538 0 
L 538 4863 
L 1656 4863 
L 1656 2988 
z
" transform="scale(0.015625)"/>
      <path id="DejaVuSans-Bold-76" d="M 97 3500 
L 1216 3500 
L 2088 1081 
L 2956 3500 
L 4078 3500 
L 2700 0 
L 1472 0 
L 97 3500 
z
" transform="scale(0.015625)"/>
     </defs>
     <use xlink:href="#DejaVuSans-Bold-63"/>
     <use xlink:href="#DejaVuSans-Bold-6f" transform="translate(59.277344 0)"/>
     <use xlink:href="#DejaVuSans-Bold-6d" transform="translate(127.978516 0)"/>
     <use xlink:href="#DejaVuSans-Bold-62" transform="translate(232.177734 0)"/>
     <use xlink:href="#DejaVuSans-Bold-61" transform="translate(303.759766 0)"/>
     <use xlink:href="#DejaVuSans-Bold-74" transform="translate(371.240234 0)"/>
     <use xlink:href="#DejaVuSans-Bold-69" transform="translate(419.042969 0)"/>
     <use xlink:href="#DejaVuSans-Bold-76" transform="translate(453.320312 0)"/>
     <use xlink:href="#DejaVuSans-Bold-65" transform="translate(518.505859 0)"/>
     <use xlink:href="#DejaVuSans-Bold-2d" transform="translate(586.328125 0)"/>
     <use xlink:href="#DejaVuSans-Bold-69" transform="translate(627.832031 0)"/>
     <use xlink:href="#DejaVuSans-Bold-63" transform="translate(662.109375 0)"/>
     <use xlink:href="#DejaVuSans-Bold-6f" transform="translate(721.386719 0)"/>
     <use xlink:href="#DejaVuSans-Bold-6e" transform="translate(790.087891 0)"/>
     <use xlink:href="#DejaVuSans-Bold-6f" transform="translate(861.279297 0)"/>
     <use xlink:href="#DejaVuSans-Bold-63" transform="translate(929.980469 0)"/>
     <use xlink:href="#DejaVuSans-Bold-6c" transform="translate(989.257812 0)"/>
     <use xlink:href="#DejaVuSans-Bold-61" transform="translate(1023.535156 0)"/>
     <use xlink:href="#DejaVuSans-Bold-73" transform="translate(1091.015625 0)"/>
     <use xlink:href="#DejaVuSans-Bold-74" transform="translate(1150.537109 0)"/>
    </g>
   </g>
   <g id="PathCollection_6">
    <defs>
     <path id="mc536c3a823" d="M 0 13.782621 
C 3.655194 13.782621 7.161172 12.330397 9.745784 9.745784 
C 12.330397 7.161172 13.782621 3.655194 13.782621 0 
C 13.782621 -3.655194 12.330397 -7.161172 9.745784 -9.745784 
C 7.161172 -12.330397 3.655194 -13.782621 0 -13.782621 
C -3.655194 -13.782621 -7.161172 -12.330397 -9.745784 -9.745784 
C -12.330397 -7.161172 -13.782621 -3.655194 -13.782621 0 
C -13.782621 3.655194 -12.330397 7.161172 -9.745784 9.745784 
C -7.161172 12.330397 -3.655194 13.782621 0 13.782621 
z
" style="stroke: #ffffff; stroke-opacity: 0.9; stroke-width: 2.2"/>
    </defs>
    <g clip-path="url(#p20fa62afc7)">
     <use xlink:href="#mc536c3a823" x="95.021893" y="287.252471" style="fill: #c9863e; fill-opacity: 0.9; stroke: #ffffff; stroke-opacity: 0.9; stroke-width: 2.2"/>
    </g>
   </g>
   <g id="text_19">
    <!-- trickster-chaos -->
    <g style="fill: #c9863e" transform="translate(105.794642 255.59444) scale(0.102 -0.102)">
     <defs>
      <path id="DejaVuSans-Bold-6b" d="M 538 4863 
L 1656 4863 
L 1656 2216 
L 2944 3500 
L 4244 3500 
L 2534 1894 
L 4378 0 
L 3022 0 
L 1656 1459 
L 1656 0 
L 538 0 
L 538 4863 
z
" transform="scale(0.015625)"/>
     </defs>
     <use xlink:href="#DejaVuSans-Bold-74"/>
     <use xlink:href="#DejaVuSans-Bold-72" transform="translate(47.802734 0)"/>
     <use xlink:href="#DejaVuSans-Bold-69" transform="translate(97.119141 0)"/>
     <use xlink:href="#DejaVuSans-Bold-63" transform="translate(131.396484 0)"/>
     <use xlink:href="#DejaVuSans-Bold-6b" transform="translate(190.673828 0)"/>
     <use xlink:href="#DejaVuSans-Bold-73" transform="translate(257.177734 0)"/>
     <use xlink:href="#DejaVuSans-Bold-74" transform="translate(316.699219 0)"/>
     <use xlink:href="#DejaVuSans-Bold-65" transform="translate(364.501953 0)"/>
     <use xlink:href="#DejaVuSans-Bold-72" transform="translate(432.324219 0)"/>
     <use xlink:href="#DejaVuSans-Bold-2d" transform="translate(481.640625 0)"/>
     <use xlink:href="#DejaVuSans-Bold-63" transform="translate(523.144531 0)"/>
     <use xlink:href="#DejaVuSans-Bold-68" transform="translate(582.421875 0)"/>
     <use xlink:href="#DejaVuSans-Bold-61" transform="translate(653.613281 0)"/>
     <use xlink:href="#DejaVuSans-Bold-6f" transform="translate(721.09375 0)"/>
     <use xlink:href="#DejaVuSans-Bold-73" transform="translate(789.794922 0)"/>
    </g>
   </g>
   <g id="PathCollection_7">
    <defs>
     <path id="m64e6f8a942" d="M 0 22.321029 
C 5.919606 22.321029 11.597557 19.969145 15.783351 15.783351 
C 19.969145 11.597557 22.321029 5.919606 22.321029 0 
C 22.321029 -5.919606 19.969145 -11.597557 15.783351 -15.783351 
C 11.597557 -19.969145 5.919606 -22.321029 0 -22.321029 
C -5.919606 -22.321029 -11.597557 -19.969145 -15.783351 -15.783351 
C -19.969145 -11.597557 -22.321029 -5.919606 -22.321029 0 
C -22.321029 5.919606 -19.969145 11.597557 -15.783351 15.783351 
C -11.597557 19.969145 -5.919606 22.321029 0 22.321029 
z
" style="stroke: #ffffff; stroke-opacity: 0.9; stroke-width: 2.2"/>
    </defs>
    <g clip-path="url(#p20fa62afc7)">
     <use xlink:href="#m64e6f8a942" x="175.74312" y="71.836113" style="fill: #7b638d; fill-opacity: 0.9; stroke: #ffffff; stroke-opacity: 0.9; stroke-width: 2.2"/>
    </g>
   </g>
   <g id="text_20">
    <!-- mythic-spiritual -->
    <g style="fill: #7b638d" transform="translate(130.192151 27.929195) scale(0.102 -0.102)">
     <defs>
      <path id="DejaVuSans-Bold-79" d="M 78 3500 
L 1197 3500 
L 2138 1125 
L 2938 3500 
L 4056 3500 
L 2584 -331 
Q 2363 -916 2067 -1148 
Q 1772 -1381 1288 -1381 
L 641 -1381 
L 641 -647 
L 991 -647 
Q 1275 -647 1404 -556 
Q 1534 -466 1606 -231 
L 1638 -134 
L 78 3500 
z
" transform="scale(0.015625)"/>
     </defs>
     <use xlink:href="#DejaVuSans-Bold-6d"/>
     <use xlink:href="#DejaVuSans-Bold-79" transform="translate(104.199219 0)"/>
     <use xlink:href="#DejaVuSans-Bold-74" transform="translate(169.384766 0)"/>
     <use xlink:href="#DejaVuSans-Bold-68" transform="translate(217.1875 0)"/>
     <use xlink:href="#DejaVuSans-Bold-69" transform="translate(288.378906 0)"/>
     <use xlink:href="#DejaVuSans-Bold-63" transform="translate(322.65625 0)"/>
     <use xlink:href="#DejaVuSans-Bold-2d" transform="translate(381.933594 0)"/>
     <use xlink:href="#DejaVuSans-Bold-73" transform="translate(423.4375 0)"/>
     <use xlink:href="#DejaVuSans-Bold-70" transform="translate(482.958984 0)"/>
     <use xlink:href="#DejaVuSans-Bold-69" transform="translate(554.541016 0)"/>
     <use xlink:href="#DejaVuSans-Bold-72" transform="translate(588.818359 0)"/>
     <use xlink:href="#DejaVuSans-Bold-69" transform="translate(638.134766 0)"/>
     <use xlink:href="#DejaVuSans-Bold-74" transform="translate(672.412109 0)"/>
     <use xlink:href="#DejaVuSans-Bold-75" transform="translate(720.214844 0)"/>
     <use xlink:href="#DejaVuSans-Bold-61" transform="translate(791.40625 0)"/>
     <use xlink:href="#DejaVuSans-Bold-6c" transform="translate(858.886719 0)"/>
    </g>
   </g>
   <g id="patch_5">
    <path d="M 99.719649 440.0352 
Q 366.048655 440.0352 632.37766 440.0352 
" style="fill: none; stroke: #8d877e; stroke-width: 1.4; stroke-linecap: round"/>
    <path d="M 103.719649 442.0352 
L 99.719649 440.0352 
L 103.719649 438.0352 
" style="fill: none; stroke: #8d877e; stroke-width: 1.4; stroke-linecap: round"/>
    <path d="M 628.37766 438.0352 
L 632.37766 440.0352 
L 628.37766 442.0352 
" style="fill: none; stroke: #8d877e; stroke-width: 1.4; stroke-linecap: round"/>
   </g>
   <g id="text_21">
    <!-- Assistant-axis position of family centroid -->
    <g style="fill: #6e665b" transform="translate(264.518594 457.209637) scale(0.1 -0.1)">
     <defs>
      <path id="DejaVuSans-41" d="M 2188 4044 
L 1331 1722 
L 3047 1722 
L 2188 4044 
z
M 1831 4666 
L 2547 4666 
L 4325 0 
L 3669 0 
L 3244 1197 
L 1141 1197 
L 716 0 
L 50 0 
L 1831 4666 
z
" transform="scale(0.015625)"/>
      <path id="DejaVuSans-2d" d="M 313 2009 
L 1997 2009 
L 1997 1497 
L 313 1497 
L 313 2009 
z
" transform="scale(0.015625)"/>
      <path id="DejaVuSans-78" d="M 3513 3500 
L 2247 1797 
L 3578 0 
L 2900 0 
L 1881 1375 
L 863 0 
L 184 0 
L 1544 1831 
L 300 3500 
L 978 3500 
L 1906 2253 
L 2834 3500 
L 3513 3500 
z
" transform="scale(0.015625)"/>
      <path id="DejaVuSans-70" d="M 1159 525 
L 1159 -1331 
L 581 -1331 
L 581 3500 
L 1159 3500 
L 1159 2969 
Q 1341 3281 1617 3432 
Q 1894 3584 2278 3584 
Q 2916 3584 3314 3078 
Q 3713 2572 3713 1747 
Q 3713 922 3314 415 
Q 2916 -91 2278 -91 
Q 1894 -91 1617 61 
Q 1341 213 1159 525 
z
M 3116 1747 
Q 3116 2381 2855 2742 
Q 2594 3103 2138 3103 
Q 1681 3103 1420 2742 
Q 1159 2381 1159 1747 
Q 1159 1113 1420 752 
Q 1681 391 2138 391 
Q 2594 391 2855 752 
Q 3116 1113 3116 1747 
z
" transform="scale(0.015625)"/>
      <path id="DejaVuSans-64" d="M 2906 2969 
L 2906 4863 
L 3481 4863 
L 3481 0 
L 2906 0 
L 2906 525 
Q 2725 213 2448 61 
Q 2172 -91 1784 -91 
Q 1150 -91 751 415 
Q 353 922 353 1747 
Q 353 2572 751 3078 
Q 1150 3584 1784 3584 
Q 2172 3584 2448 3432 
Q 2725 3281 2906 2969 
z
M 947 1747 
Q 947 1113 1208 752 
Q 1469 391 1925 391 
Q 2381 391 2643 752 
Q 2906 1113 2906 1747 
Q 2906 2381 2643 2742 
Q 2381 3103 1925 3103 
Q 1469 3103 1208 2742 
Q 947 2381 947 1747 
z
" transform="scale(0.015625)"/>
     </defs>
     <use xlink:href="#DejaVuSans-41"/>
     <use xlink:href="#DejaVuSans-73" transform="translate(68.408203 0)"/>
     <use xlink:href="#DejaVuSans-73" transform="translate(120.507812 0)"/>
     <use xlink:href="#DejaVuSans-69" transform="translate(172.607422 0)"/>
     <use xlink:href="#DejaVuSans-73" transform="translate(200.390625 0)"/>
     <use xlink:href="#DejaVuSans-74" transform="translate(252.490234 0)"/>
     <use xlink:href="#DejaVuSans-61" transform="translate(291.699219 0)"/>
     <use xlink:href="#DejaVuSans-6e" transform="translate(352.978516 0)"/>
     <use xlink:href="#DejaVuSans-74" transform="translate(416.357422 0)"/>
     <use xlink:href="#DejaVuSans-2d" transform="translate(455.566406 0)"/>
     <use xlink:href="#DejaVuSans-61" transform="translate(491.650391 0)"/>
     <use xlink:href="#DejaVuSans-78" transform="translate(552.929688 0)"/>
     <use xlink:href="#DejaVuSans-69" transform="translate(612.109375 0)"/>
     <use xlink:href="#DejaVuSans-73" transform="translate(639.892578 0)"/>
     <use xlink:href="#DejaVuSans-20" transform="translate(691.992188 0)"/>
     <use xlink:href="#DejaVuSans-70" transform="translate(723.779297 0)"/>
     <use xlink:href="#DejaVuSans-6f" transform="translate(787.255859 0)"/>
     <use xlink:href="#DejaVuSans-73" transform="translate(848.4375 0)"/>
     <use xlink:href="#DejaVuSans-69" transform="translate(900.537109 0)"/>
     <use xlink:href="#DejaVuSans-74" transform="translate(928.320312 0)"/>
     <use xlink:href="#DejaVuSans-69" transform="translate(967.529297 0)"/>
     <use xlink:href="#DejaVuSans-6f" transform="translate(995.3125 0)"/>
     <use xlink:href="#DejaVuSans-6e" transform="translate(1056.494141 0)"/>
     <use xlink:href="#DejaVuSans-20" transform="translate(1119.873047 0)"/>
     <use xlink:href="#DejaVuSans-6f" transform="translate(1151.660156 0)"/>
     <use xlink:href="#DejaVuSans-66" transform="translate(1212.841797 0)"/>
     <use xlink:href="#DejaVuSans-20" transform="translate(1248.046875 0)"/>
     <use xlink:href="#DejaVuSans-66" transform="translate(1279.833984 0)"/>
     <use xlink:href="#DejaVuSans-61" transform="translate(1315.039062 0)"/>
     <use xlink:href="#DejaVuSans-6d" transform="translate(1376.318359 0)"/>
     <use xlink:href="#DejaVuSans-69" transform="translate(1473.730469 0)"/>
     <use xlink:href="#DejaVuSans-6c" transform="translate(1501.513672 0)"/>
     <use xlink:href="#DejaVuSans-79" transform="translate(1529.296875 0)"/>
     <use xlink:href="#DejaVuSans-20" transform="translate(1588.476562 0)"/>
     <use xlink:href="#DejaVuSans-63" transform="translate(1620.263672 0)"/>
     <use xlink:href="#DejaVuSans-65" transform="translate(1675.244141 0)"/>
     <use xlink:href="#DejaVuSans-6e" transform="translate(1736.767578 0)"/>
     <use xlink:href="#DejaVuSans-74" transform="translate(1800.146484 0)"/>
     <use xlink:href="#DejaVuSans-72" transform="translate(1839.355469 0)"/>
     <use xlink:href="#DejaVuSans-6f" transform="translate(1878.21875 0)"/>
     <use xlink:href="#DejaVuSans-69" transform="translate(1939.400391 0)"/>
     <use xlink:href="#DejaVuSans-64" transform="translate(1967.183594 0)"/>
    </g>
   </g>
   <g id="text_22">
    <!-- role-playing -->
    <g style="fill: #b35f49" transform="translate(96.157063 476.361637) scale(0.1 -0.1)">
     <use xlink:href="#DejaVuSans-Bold-72"/>
     <use xlink:href="#DejaVuSans-Bold-6f" transform="translate(49.316406 0)"/>
     <use xlink:href="#DejaVuSans-Bold-6c" transform="translate(118.017578 0)"/>
     <use xlink:href="#DejaVuSans-Bold-65" transform="translate(152.294922 0)"/>
     <use xlink:href="#DejaVuSans-Bold-2d" transform="translate(220.117188 0)"/>
     <use xlink:href="#DejaVuSans-Bold-70" transform="translate(261.621094 0)"/>
     <use xlink:href="#DejaVuSans-Bold-6c" transform="translate(333.203125 0)"/>
     <use xlink:href="#DejaVuSans-Bold-61" transform="translate(367.480469 0)"/>
     <use xlink:href="#DejaVuSans-Bold-79" transform="translate(431.835938 0)"/>
     <use xlink:href="#DejaVuSans-Bold-69" transform="translate(497.021484 0)"/>
     <use xlink:href="#DejaVuSans-Bold-6e" transform="translate(531.298828 0)"/>
     <use xlink:href="#DejaVuSans-Bold-67" transform="translate(602.490234 0)"/>
    </g>
   </g>
   <g id="text_23">
    <!-- assistant-like -->
    <g style="fill: #4f82d8" transform="translate(560.306687 476.361637) scale(0.1 -0.1)">
     <use xlink:href="#DejaVuSans-Bold-61"/>
     <use xlink:href="#DejaVuSans-Bold-73" transform="translate(67.480469 0)"/>
     <use xlink:href="#DejaVuSans-Bold-73" transform="translate(127.001953 0)"/>
     <use xlink:href="#DejaVuSans-Bold-69" transform="translate(186.523438 0)"/>
     <use xlink:href="#DejaVuSans-Bold-73" transform="translate(220.800781 0)"/>
     <use xlink:href="#DejaVuSans-Bold-74" transform="translate(280.322266 0)"/>
     <use xlink:href="#DejaVuSans-Bold-61" transform="translate(328.125 0)"/>
     <use xlink:href="#DejaVuSans-Bold-6e" transform="translate(395.605469 0)"/>
     <use xlink:href="#DejaVuSans-Bold-74" transform="translate(466.796875 0)"/>
     <use xlink:href="#DejaVuSans-Bold-2d" transform="translate(514.599609 0)"/>
     <use xlink:href="#DejaVuSans-Bold-6c" transform="translate(556.103516 0)"/>
     <use xlink:href="#DejaVuSans-Bold-69" transform="translate(590.380859 0)"/>
     <use xlink:href="#DejaVuSans-Bold-6b" transform="translate(624.658203 0)"/>
     <use xlink:href="#DejaVuSans-Bold-65" transform="translate(688.537109 0)"/>
    </g>
   </g>
   <g id="text_24">
    <!-- more isolated -->
    <g style="fill: #6e665b" transform="translate(51.175063 23.614594) scale(0.09 -0.09)">
     <use xlink:href="#DejaVuSans-6d"/>
     <use xlink:href="#DejaVuSans-6f" transform="translate(97.412109 0)"/>
     <use xlink:href="#DejaVuSans-72" transform="translate(158.59375 0)"/>
     <use xlink:href="#DejaVuSans-65" transform="translate(197.457031 0)"/>
     <use xlink:href="#DejaVuSans-20" transform="translate(258.980469 0)"/>
     <use xlink:href="#DejaVuSans-69" transform="translate(290.767578 0)"/>
     <use xlink:href="#DejaVuSans-73" transform="translate(318.550781 0)"/>
     <use xlink:href="#DejaVuSans-6f" transform="translate(370.650391 0)"/>
     <use xlink:href="#DejaVuSans-6c" transform="translate(431.832031 0)"/>
     <use xlink:href="#DejaVuSans-61" transform="translate(459.615234 0)"/>
     <use xlink:href="#DejaVuSans-74" transform="translate(520.894531 0)"/>
     <use xlink:href="#DejaVuSans-65" transform="translate(560.103516 0)"/>
     <use xlink:href="#DejaVuSans-64" transform="translate(621.626953 0)"/>
    </g>
   </g>
   <g id="text_25">
    <!-- more porous -->
    <g style="fill: #6e665b" transform="translate(51.175063 378.792281) scale(0.09 -0.09)">
     <defs>
      <path id="DejaVuSans-75" d="M 544 1381 
L 544 3500 
L 1119 3500 
L 1119 1403 
Q 1119 906 1312 657 
Q 1506 409 1894 409 
Q 2359 409 2629 706 
Q 2900 1003 2900 1516 
L 2900 3500 
L 3475 3500 
L 3475 0 
L 2900 0 
L 2900 538 
Q 2691 219 2414 64 
Q 2138 -91 1772 -91 
Q 1169 -91 856 284 
Q 544 659 544 1381 
z
M 1991 3584 
L 1991 3584 
z
" transform="scale(0.015625)"/>
     </defs>
     <use xlink:href="#DejaVuSans-6d"/>
     <use xlink:href="#DejaVuSans-6f" transform="translate(97.412109 0)"/>
     <use xlink:href="#DejaVuSans-72" transform="translate(158.59375 0)"/>
     <use xlink:href="#DejaVuSans-65" transform="translate(197.457031 0)"/>
     <use xlink:href="#DejaVuSans-20" transform="translate(258.980469 0)"/>
     <use xlink:href="#DejaVuSans-70" transform="translate(290.767578 0)"/>
     <use xlink:href="#DejaVuSans-6f" transform="translate(354.244141 0)"/>
     <use xlink:href="#DejaVuSans-72" transform="translate(415.425781 0)"/>
     <use xlink:href="#DejaVuSans-6f" transform="translate(454.289062 0)"/>
     <use xlink:href="#DejaVuSans-75" transform="translate(515.470703 0)"/>
     <use xlink:href="#DejaVuSans-73" transform="translate(578.849609 0)"/>
    </g>
   </g>
   <g id="text_26">
    <!-- 5 -->
    <g style="fill: #ffffff" transform="translate(629.310629 346.869613) scale(0.12 -0.12)">
     <defs>
      <path id="DejaVuSans-Bold-35" d="M 678 4666 
L 3669 4666 
L 3669 3781 
L 1638 3781 
L 1638 3059 
Q 1775 3097 1914 3117 
Q 2053 3138 2203 3138 
Q 3056 3138 3531 2711 
Q 4006 2284 4006 1522 
Q 4006 766 3489 337 
Q 2972 -91 2053 -91 
Q 1656 -91 1267 -14 
Q 878 63 494 219 
L 494 1166 
Q 875 947 1217 837 
Q 1559 728 1863 728 
Q 2300 728 2551 942 
Q 2803 1156 2803 1522 
Q 2803 1891 2551 2103 
Q 2300 2316 1863 2316 
Q 1603 2316 1309 2248 
Q 1016 2181 678 2041 
L 678 4666 
z
" transform="scale(0.015625)"/>
     </defs>
     <use xlink:href="#DejaVuSans-Bold-35"/>
    </g>
   </g>
   <g id="text_27">
    <!-- 127 -->
    <g style="fill: #ffffff" transform="translate(462.170709 346.869613) scale(0.12 -0.12)">
     <defs>
      <path id="DejaVuSans-Bold-31" d="M 750 831 
L 1813 831 
L 1813 3847 
L 722 3622 
L 722 4441 
L 1806 4666 
L 2950 4666 
L 2950 831 
L 4013 831 
L 4013 0 
L 750 0 
L 750 831 
z
" transform="scale(0.015625)"/>
      <path id="DejaVuSans-Bold-32" d="M 1844 884 
L 3897 884 
L 3897 0 
L 506 0 
L 506 884 
L 2209 2388 
Q 2438 2594 2547 2791 
Q 2656 2988 2656 3200 
Q 2656 3528 2436 3728 
Q 2216 3928 1850 3928 
Q 1569 3928 1234 3808 
Q 900 3688 519 3450 
L 519 4475 
Q 925 4609 1322 4679 
Q 1719 4750 2100 4750 
Q 2938 4750 3402 4381 
Q 3866 4013 3866 3353 
Q 3866 2972 3669 2642 
Q 3472 2313 2841 1759 
L 1844 884 
z
" transform="scale(0.015625)"/>
      <path id="DejaVuSans-Bold-37" d="M 428 4666 
L 3944 4666 
L 3944 3988 
L 2125 0 
L 953 0 
L 2675 3781 
L 428 3781 
L 428 4666 
z
" transform="scale(0.015625)"/>
     </defs>
     <use xlink:href="#DejaVuSans-Bold-31"/>
     <use xlink:href="#DejaVuSans-Bold-32" transform="translate(69.580078 0)"/>
     <use xlink:href="#DejaVuSans-Bold-37" transform="translate(139.160156 0)"/>
    </g>
   </g>
   <g id="text_28">
    <!-- 45 -->
    <g style="fill: #ffffff" transform="translate(234.103614 296.425357) scale(0.12 -0.12)">
     <defs>
      <path id="DejaVuSans-Bold-34" d="M 2356 3675 
L 1038 1722 
L 2356 1722 
L 2356 3675 
z
M 2156 4666 
L 3494 4666 
L 3494 1722 
L 4159 1722 
L 4159 850 
L 3494 850 
L 3494 0 
L 2356 0 
L 2356 850 
L 288 850 
L 288 1881 
L 2156 4666 
z
" transform="scale(0.015625)"/>
     </defs>
     <use xlink:href="#DejaVuSans-Bold-34"/>
     <use xlink:href="#DejaVuSans-Bold-35" transform="translate(69.580078 0)"/>
    </g>
   </g>
   <g id="text_29">
    <!-- 22 -->
    <g style="fill: #ffffff" transform="translate(157.76377 296.425357) scale(0.12 -0.12)">
     <use xlink:href="#DejaVuSans-Bold-32"/>
     <use xlink:href="#DejaVuSans-Bold-32" transform="translate(69.580078 0)"/>
    </g>
   </g>
   <g id="text_30">
    <!-- 8 -->
    <g style="fill: #ffffff" transform="translate(215.509999 221.812414) scale(0.12 -0.12)">
     <defs>
      <path id="DejaVuSans-Bold-38" d="M 2228 2088 
Q 1891 2088 1709 1903 
Q 1528 1719 1528 1375 
Q 1528 1031 1709 848 
Q 1891 666 2228 666 
Q 2563 666 2741 848 
Q 2919 1031 2919 1375 
Q 2919 1722 2741 1905 
Q 2563 2088 2228 2088 
z
M 1350 2484 
Q 925 2613 709 2878 
Q 494 3144 494 3541 
Q 494 4131 934 4440 
Q 1375 4750 2228 4750 
Q 3075 4750 3515 4442 
Q 3956 4134 3956 3541 
Q 3956 3144 3739 2878 
Q 3522 2613 3097 2484 
Q 3572 2353 3814 2058 
Q 4056 1763 4056 1313 
Q 4056 619 3595 264 
Q 3134 -91 2228 -91 
Q 1319 -91 855 264 
Q 391 619 391 1313 
Q 391 1763 633 2058 
Q 875 2353 1350 2484 
z
M 1631 3419 
Q 1631 3141 1786 2991 
Q 1941 2841 2228 2841 
Q 2509 2841 2662 2991 
Q 2816 3141 2816 3419 
Q 2816 3697 2662 3845 
Q 2509 3994 2228 3994 
Q 1941 3994 1786 3844 
Q 1631 3694 1631 3419 
z
" transform="scale(0.015625)"/>
     </defs>
     <use xlink:href="#DejaVuSans-Bold-38"/>
    </g>
   </g>
   <g id="text_31">
    <!-- 7 -->
    <g style="fill: #ffffff" transform="translate(90.847205 290.563721) scale(0.12 -0.12)">
     <use xlink:href="#DejaVuSans-Bold-37"/>
    </g>
   </g>
   <g id="text_32">
    <!-- 61 -->
    <g style="fill: #ffffff" transform="translate(167.393745 75.147363) scale(0.12 -0.12)">
     <defs>
      <path id="DejaVuSans-Bold-36" d="M 2316 2303 
Q 2000 2303 1842 2098 
Q 1684 1894 1684 1484 
Q 1684 1075 1842 870 
Q 2000 666 2316 666 
Q 2634 666 2792 870 
Q 2950 1075 2950 1484 
Q 2950 1894 2792 2098 
Q 2634 2303 2316 2303 
z
M 3803 4544 
L 3803 3681 
Q 3506 3822 3243 3889 
Q 2981 3956 2731 3956 
Q 2194 3956 1894 3657 
Q 1594 3359 1544 2772 
Q 1750 2925 1990 3001 
Q 2231 3078 2516 3078 
Q 3231 3078 3670 2659 
Q 4109 2241 4109 1563 
Q 4109 813 3618 361 
Q 3128 -91 2303 -91 
Q 1394 -91 895 523 
Q 397 1138 397 2266 
Q 397 3422 980 4083 
Q 1563 4744 2578 4744 
Q 2900 4744 3203 4694 
Q 3506 4644 3803 4544 
z
" transform="scale(0.015625)"/>
     </defs>
     <use xlink:href="#DejaVuSans-Bold-36"/>
     <use xlink:href="#DejaVuSans-Bold-31" transform="translate(69.580078 0)"/>
    </g>
   </g>
  </g>
 </g>
 <defs>
  <clipPath id="p20fa62afc7">
   <rect x="44.749063" y="7.2" width="642.6" height="383.04"/>
  </clipPath>
 </defs>
</svg>
